<?xml version="1.0" encoding="UTF-8"?><svg id="Layer_2" xmlns="http://www.w3.org/2000/svg" xmlns:xlink="http://www.w3.org/1999/xlink" viewBox="0 0 928 671.92"><defs><style>.cls-1{fill:none;}.cls-2{fill:url(#linear-gradient);}.cls-3,.cls-4,.cls-5{opacity:.1;}.cls-6{fill:#f2f0fc;}.cls-7{fill:#edeef3;}.cls-8{fill:#fff;}.cls-9,.cls-10{fill:#7bc5e0;}.cls-11,.cls-12{fill:#9fd6ea;}.cls-13,.cls-14{fill:#3090b5;}.cls-15,.cls-16{fill:#cde9f4;}.cls-17,.cls-18{fill:#aee2f5;}.cls-19{fill:#0a759f;}.cls-20,.cls-21{fill:#54afd1;}.cls-12,.cls-10,.cls-21,.cls-18,.cls-16,.cls-14,.cls-22,.cls-4,.cls-5{isolation:isolate;}.cls-12,.cls-10,.cls-21,.cls-18,.cls-16,.cls-23{opacity:.8;}.cls-14{opacity:.9;}.cls-22{opacity:.08;}.cls-22,.cls-5{fill:#535e7b;}.cls-4{fill:#7253db;}</style><linearGradient id="linear-gradient" x1="-902.81" y1="977.39" x2="-902.51" y2="978.24" gradientTransform="translate(772592.48 581645.02) scale(855.43 -594.5)" gradientUnits="userSpaceOnUse"><stop offset="0" stop-color="#fff"/><stop offset=".12" stop-color="#fff"/><stop offset=".79" stop-color="#eaf3fc"/><stop offset="1" stop-color="#cde9f4"/></linearGradient></defs><g id="Layer_1-2"><g id="Intersection_1"><image width="928" height="667" transform="translate(0 4.92)" xlink:href="Asset 21.png"/></g><path id="Intersection_1-2" class="cls-2" d="M367,613.66L116.49,469.05c-50.02-74.2-77.93-161.08-80.49-250.53L376.12,21.79c3.44-1.79,7.52-1.84,11-.12l502.14,289.92c3,1.72,2.88,4.56-.21,6.34l-511.05,295.61c-1.74,.94-3.7,1.41-5.68,1.37-1.85,.05-3.69-.38-5.32-1.25Z"/><path id="Intersection_1-2" class="cls-20" d="M359.23,31.5l16.89-9.71c3.05-1.57,6.62-1.81,9.85-.66l504.22,291.16c1.35,.96,1.67,2.83,.72,4.18-.2,.28-.44,.52-.72,.72l-18.13,10.42L359.23,31.5Z"/><path id="Rectangle_30" class="cls-5" d="M605.69,316.72l113.65,65.57c1.44,.84,1.26,2.29-.41,3.26l-41.78,24.12c-1.74,.97-3.83,1.06-5.64,.23l-113.64-65.61c-1.45-.83-1.27-2.29,.4-3.26l41.78-24.12c1.74-.95,3.84-1.02,5.64-.19Z"/><path id="Rectangle_30-2" class="cls-5" d="M542.2,353.6l113.64,65.62c1.45,.83,1.26,2.29-.4,3.25l-41.78,24.13c-1.74,.96-3.83,1.05-5.64,.23l-113.65-65.61c-1.45-.84-1.26-2.3,.4-3.26l41.78-24.12c1.74-.97,3.83-1.06,5.65-.24Z"/><path id="Rectangle_30-3" class="cls-5" d="M478.7,390.49l113.64,65.61c1.45,.84,1.27,2.3-.4,3.26l-41.78,24.12c-1.74,.97-3.83,1.06-5.64,.24l-113.65-65.62c-1.44-.83-1.26-2.29,.41-3.25l41.78-24.13c1.74-.96,3.83-1.05,5.64-.23Z"/><path id="Rectangle_30-4" class="cls-5" d="M415.2,427.38l113.64,65.62c1.45,.83,1.27,2.29-.4,3.26l-41.78,24.12c-1.74,.97-3.83,1.06-5.64,.23l-113.65-65.61c-1.44-.84-1.26-2.3,.41-3.26l41.78-24.12c1.73-.98,3.83-1.07,5.64-.24Z"/><path id="Rectangle_30-5" class="cls-10" d="M607.21,306l113.64,65.61c1.45,.84,1.27,2.3-.4,3.26l-41.78,24.13c-1.74,.97-3.83,1.06-5.64,.24l-113.65-65.67c-1.44-.83-1.26-2.29,.4-3.25l41.78-24.12c1.75-.96,3.84-1.03,5.65-.2Z"/><path id="Rectangle_30-6" class="cls-12" d="M543.71,342.85l113.65,65.61c1.44,.83,1.26,2.29-.4,3.26l-41.78,24.12c-1.74,.97-3.83,1.06-5.64,.23l-113.65-65.61c-1.45-.84-1.26-2.29,.41-3.26l41.78-24.12c1.73-.97,3.82-1.05,5.63-.23Z"/><path id="Rectangle_30-7" class="cls-18" d="M480.21,379.73l113.65,65.61c1.45,.84,1.27,2.3-.4,3.26l-41.78,24.12c-1.74,.99-3.85,1.1-5.68,.28l-113.61-65.66c-1.45-.83-1.26-2.29,.4-3.25l41.78-24.09c1.73-.98,3.82-1.08,5.64-.27Z"/><path id="Rectangle_30-8" class="cls-16" d="M416.71,416.62l113.65,65.61c1.45,.84,1.26,2.29-.4,3.26l-41.78,24.12c-1.74,.97-3.83,1.06-5.64,.23l-113.65-65.61c-1.45-.83-1.26-2.29,.4-3.26l41.78-24.12c1.74-.97,3.83-1.05,5.64-.23Z"/><g id="Group_242"><path id="Path_1304" class="cls-13" d="M729.18,312.29l22.55-13,21.7,12.52-22.55,13-21.7-12.52Z"/><path id="Path_1305" class="cls-13" d="M690.49,290l22.51-13,21.7,12.53-22.55,13-21.66-12.53Z"/><path id="Path_1306" class="cls-13" d="M651.84,267.63l22.55-13,21.7,12.53-22.55,13-21.7-12.53Z"/><g id="Group_241"><line id="Line_64" class="cls-1" x1="751.3" y1="312.04" x2="673.96" y2="267.39"/><path id="Path_1307" class="cls-13" d="M673.17,267.85l1.59-.92,77.34,44.65-1.59,.92-77.34-44.65Z"/></g></g><g id="Group_244" class="cls-3"><path id="Path_1308" class="cls-13" d="M729.18,339.39l22.55-13,21.7,12.52-22.55,13-21.7-12.52Z"/><path id="Path_1309" class="cls-13" d="M690.49,317.06l22.55-13,21.7,12.53-22.55,13-21.7-12.53Z"/><path id="Path_1310" class="cls-13" d="M651.84,294.73l22.55-13,21.7,12.56-22.55,13-21.7-12.56Z"/><g id="Group_243"><line id="Line_65" class="cls-1" x1="751.3" y1="339.14" x2="673.96" y2="294.49"/><path id="Path_1311" class="cls-13" d="M673.17,295l1.59-.92,77.34,44.65-1.59,.92-77.34-44.65Z"/></g></g><path id="Path_1312" class="cls-19" d="M413.6,146.19l-104.18-60.19,3.28-1.89,104.17,60.14-3.27,1.94Z"/><path id="Path_1313" class="cls-19" d="M427.4,138.22l-77-44.46,3.27-1.88,77,44.45-3.27,1.89Z"/><path id="Path_1314" class="cls-19" d="M399.79,154.16l-104.18-60.16,3.28-1.89,104.17,60.16-3.27,1.89Z"/><path id="Path_1315" class="cls-19" d="M386,162.13l-104.2-60.13,3.28-1.89,104.17,60.19-3.25,1.83Z"/><path id="Path_1316" class="cls-19" d="M372.17,170.1l-104.17-60.1,3.28-1.89,104.22,60.15-3.33,1.84Z"/><path id="Path_1317" class="cls-19" d="M308.65,149.38l-54.47-31.45,3.27-1.88,54.47,31.44-3.27,1.89Z"/><g id="Group_246"><path id="Path_1318" class="cls-19" d="M338.94,88.05l2.53-3.53-8.64-5-6.11,1.48-3.23-1.87,26.49-6,2.65,1.53-10.42,15.3-3.27-1.91Zm-2.45-9.42l6.5,3.76,4.6-6.41-11.1,2.65Z"/></g><ellipse id="Ellipse_56" class="cls-7" cx="382.65" cy="31.11" rx="3.66" ry="2.11" transform="translate(-.82 12.77) rotate(-1.91)"/><ellipse id="Ellipse_57" class="cls-7" cx="390.07" cy="35.41" rx="3.66" ry="2.11" transform="translate(-.96 13.02) rotate(-1.91)"/><ellipse id="Ellipse_58" class="cls-7" cx="397.79" cy="39.86" rx="3.66" ry="2.11" transform="translate(-1.11 13.28) rotate(-1.91)"/><path id="Path_1319" class="cls-15" d="M540.61,295.54l-164.45-94.94c-3.79-2.19-3.31-6,1.06-8.53l88.9-51.33c4.37-2.52,11-2.8,14.77-.61l164.45,94.94c3.79,2.19,3.31,6-1.06,8.53l-88.9,51.33c-4.38,2.52-10.99,2.8-14.77,.61Z"/><path id="Path_1320" class="cls-15" d="M437.55,157.29l-20.65,11.92-.41,.83,44.94,25.96,9.57-19.4-33.45-19.31Z"/><g id="Group_250"><path id="Path_1321" class="cls-13" d="M445.25,175.75l-8.37-4.83c-.95-.55-.92-1.45,.07-2,1.1-.55,2.39-.55,3.49,0l8.37,4.83c.94,.55,.91,1.45-.07,2-1.1,.56-2.39,.56-3.49,0Z"/></g><g id="Group_251"><path id="Path_1322" class="cls-13" d="M451.72,179.59c-1-.57-1-1.53,.07-2.12,1.15-.59,2.52-.59,3.67,0,1,.57,1,1.52-.07,2.12-1.15,.59-2.52,.59-3.67,0Z"/></g><path id="Path_1323" class="cls-17" d="M498.58,217.38l-39.44-22.77,9.59-19.32,39.44,22.77-9.59,19.32Z"/><path id="Path_1324" class="cls-11" d="M538,240.15l-39.45-22.77,9.62-19.38,39.45,22.77-9.62,19.38Z"/><g id="Group_252"><path id="Path_1325" class="cls-13" d="M483.8,198l-8.37-4.83c-.94-.55-.91-1.45,.07-2,1.1-.55,2.4-.55,3.5,0l8.36,4.83c.95,.55,.92,1.45-.07,2-1.1,.56-2.39,.56-3.49,0Z"/></g><g id="Group_253"><path id="Path_1326" class="cls-13" d="M490.27,201.85c-1-.58-1-1.53,.07-2.12,1.16-.58,2.52-.58,3.68,0,1,.58,1,1.53-.08,2.13-1.16,.58-2.52,.58-3.67-.01Z"/></g><g id="Group_254"><path id="Path_1327" class="cls-13" d="M522.56,220.38l-8.37-4.83c-.95-.54-.92-1.45,.07-2,1.1-.56,2.39-.56,3.49,0l8.37,4.83c.94,.54,.91,1.45-.07,2-1.1,.56-2.39,.56-3.49,0Z"/></g><g id="Group_255"><path id="Path_1328" class="cls-13" d="M529,224.23c-1-.58-1-1.53,.07-2.13,1.16-.58,2.52-.58,3.68,0,1,.58,1,1.53-.08,2.13-1.15,.58-2.52,.58-3.67,0Z"/></g><path id="Path_1329" class="cls-17" d="M416,169.69l-39.55,22.84c-3.94,2.27-4.06,5.88-.27,8.07l164.45,94.94c3.78,2.19,10,2.12,14-.15l39.55-22.84-178.18-102.86Z"/><path id="Path_1330" class="cls-6" d="M544,280.57l-142.67-82.37c-1.79-1-1.56-2.82,.5-4l11-6.38c2.14-1.19,4.71-1.3,6.94-.28l142.72,82.35c1.78,1,1.56,2.83-.5,4l-11,6.37c-2.15,1.21-4.74,1.33-6.99,.31Z"/><path id="Path_1331" class="cls-13" d="M562.77,212.29l-99.15-57.24,3.56-2.06,99.16,57.3-3.57,2Z"/><path id="Path_1332" class="cls-11" d="M583.32,256.52l3.5-5.41c6,1.18,12.88,.22,17.5-2.45,6.63-3.83,6.84-9.95,.46-13.63-4.23-2.44-10.5-3.3-16.39-2.26l-2.57-5.48c9.37-1.66,19.36-.28,26.08,3.6,10.16,5.87,9.84,15.6-.72,21.7-7.37,4.27-18.3,5.81-27.86,3.93Z"/><path id="Path_1333" class="cls-20" d="M573.59,253c-10.16-5.87-9.83-15.6,.73-21.7,3.58-1.98,7.47-3.33,11.5-4l2.56,5.45c-2.53,.42-4.97,1.27-7.21,2.52-6.64,3.83-6.84,9.94-.46,13.63,1.9,1.06,3.96,1.8,6.1,2.19l-3.5,5.41c-3.41-.62-6.7-1.8-9.72-3.5Z"/><g id="Group_256"><ellipse id="Ellipse_111" class="cls-8" cx="624.39" cy="234.41" rx="2.72" ry="1.57" transform="translate(-6.75 18.85) rotate(-1.72)"/><ellipse id="Ellipse_112" class="cls-8" cx="629.88" cy="237.6" rx="2.72" ry="1.57" transform="translate(-6.85 19.01) rotate(-1.72)"/><ellipse id="Ellipse_113" class="cls-8" cx="635.62" cy="240.95" rx="2.72" ry="1.57" transform="translate(-6.95 19.19) rotate(-1.72)"/></g><path id="Path_1319-2" class="cls-15" d="M416.28,365.61l-164.44-94.94c-3.79-2.19-3.31-6,1.06-8.53l88.9-51.33c4.37-2.52,11-2.8,14.77-.61l164.43,94.95c3.78,2.18,3.31,6-1.07,8.52l-88.88,51.33c-4.37,2.53-10.98,2.8-14.77,.61Z"/><path id="Path_1320-2" class="cls-15" d="M313.23,227.29l-20.66,12-.4,.82,44.93,25.94,9.59-19.37-33.46-19.39Z"/><g id="Group_250-2"><path id="Path_1321-2" class="cls-13" d="M320.92,245.82l-8.36-4.82c-.95-.55-.92-1.45,.06-2,1.1-.55,2.4-.55,3.5,0l8.36,4.83c.95,.55,.92,1.45-.06,2-1.1,.56-2.4,.55-3.5,0Z"/></g><g id="Group_251-2"><path id="Path_1322-2" class="cls-13" d="M327.39,249.66c-1-.57-1-1.52,.07-2.12,1.16-.58,2.52-.58,3.68,0,1,.57,1,1.53-.07,2.12-1.15,.6-2.53,.6-3.68,0Z"/></g><path id="Path_1323-2" class="cls-17" d="M374.26,287.45l-39.44-22.77,9.59-19.39,39.44,22.77-9.59,19.39Z"/><path id="Path_1324-2" class="cls-11" d="M413.7,310.23l-39.44-22.78,9.59-19.37,39.44,22.77-9.59,19.38Z"/><g id="Group_252-2"><path id="Path_1325-2" class="cls-13" d="M359.49,268.08l-8.38-4.79c-.95-.55-.92-1.45,.07-2,1.1-.55,2.39-.55,3.49,0l8.37,4.83c.94,.55,.91,1.45-.07,2-1.1,.54-2.39,.52-3.48-.04Z"/></g><g id="Group_253-2"><path id="Path_1326-2" class="cls-13" d="M365.94,271.92c-1-.57-1-1.53,.07-2.12,1.15-.6,2.53-.6,3.68,0,1,.57,1,1.52-.07,2.12-1.15,.6-2.53,.6-3.68,0Z"/></g><g id="Group_254-2"><path id="Path_1327-2" class="cls-13" d="M398.23,290.45l-8.36-4.83c-.95-.54-.92-1.45,.06-2,1.1-.56,2.4-.56,3.5,0l8.36,4.83c.95,.54,.92,1.45-.06,2-1.1,.56-2.4,.56-3.5,0Z"/></g><g id="Group_255-2"><path id="Path_1328-2" class="cls-13" d="M404.7,294.29c-1-.58-1-1.53,.07-2.12,1.16-.58,2.52-.58,3.68,0,1,.58,1,1.53-.07,2.13-1.16,.58-2.52,.58-3.68-.01Z"/></g><path id="Path_1329-2" class="cls-17" d="M291.66,239.76l-39.56,22.84c-3.93,2.27-4,5.88-.26,8.07l164.44,94.94c3.79,2.19,10,2.12,14-.15l39.55-22.84-178.17-102.86Z"/><path id="Path_1330-2" class="cls-6" d="M419.67,350.64l-142.67-82.35c-1.78-1-1.56-2.82,.5-4l11-6.37c2.14-1.19,4.72-1.3,6.95-.29l142.67,82.37c1.78,1,1.55,2.82-.5,4l-11,6.37c-2.14,1.19-4.72,1.29-6.95,.27Z"/><path id="Path_1331-2" class="cls-13" d="M438.49,282.39l-99.15-57.25,3.56-2.06,99.1,57.21-3.51,2.1Z"/><path id="Path_1332-2" class="cls-11" d="M459,326.6l3.5-5.42c6,1.18,12.87,.22,17.5-2.45,6.63-3.83,6.83-9.94,.45-13.63-4.22-2.44-10.5-3.3-16.38-2.26l-2.58-5.45c9.36-1.66,19.36-.28,26.08,3.6,10.16,5.87,9.83,15.6-.73,21.7-7.35,4.25-18.28,5.78-27.84,3.91Z"/><path id="Path_1333-2" class="cls-20" d="M449.27,323.1c-10.16-5.86-9.84-15.6,.72-21.7,3.58-1.97,7.47-3.33,11.5-4l2.57,5.45c-2.53,.42-4.97,1.28-7.22,2.52-6.63,3.83-6.83,9.94-.45,13.63,1.9,1.06,3.96,1.8,6.1,2.19l-3.49,5.41c-3.42-.62-6.7-1.8-9.73-3.5Z"/><g id="Group_256-2"><ellipse id="Ellipse_111-2" class="cls-8" cx="501.4" cy="302.25" rx="2.72" ry="1.57" transform="translate(-9.8 16.88) rotate(-1.91)"/><ellipse id="Ellipse_112-2" class="cls-8" cx="506.91" cy="305.45" rx="2.72" ry="1.57" transform="translate(-9.9 17.06) rotate(-1.91)"/><ellipse id="Ellipse_113-2" class="cls-8" cx="511.01" cy="310.64" rx="2.72" ry="1.57" transform="translate(-9.09 15.48) rotate(-1.72)"/></g><path id="Path_1319-3" class="cls-15" d="M291,438.51l-164.41-94.94c-3.79-2.19-3.31-6,1.06-8.53l88.9-51.33c4.37-2.52,11-2.8,14.77-.61l164.45,95c3.78,2.18,3.31,6-1.06,8.52l-88.9,51.38c-4.32,2.43-10.99,2.7-14.81,.51Z"/><path id="Path_1320-3" class="cls-15" d="M188,300.21l-20.65,11.93-.41,.82,44.94,25.94,9.63-19.37-33.51-19.32Z"/><g id="Group_250-3"><path id="Path_1321-3" class="cls-13" d="M195.68,318.72l-8.37-4.83c-.95-.55-.92-1.45,.07-2,1.1-.55,2.39-.55,3.49,0l8.37,4.83c.94,.55,.91,1.45-.07,2-1.1,.56-2.39,.56-3.49,0Z"/></g><g id="Group_251-3"><path id="Path_1322-3" class="cls-13" d="M202.15,322.56c-1-.57-1-1.52,.07-2.12,1.15-.58,2.52-.58,3.67,0,1,.57,1,1.53-.07,2.12-1.15,.59-2.52,.59-3.67,0Z"/></g><path id="Path_1323-3" class="cls-17" d="M249,360.35l-39.44-22.77,9.59-19.37,39.45,22.79-9.6,19.35Z"/><path id="Path_1324-3" class="cls-11" d="M288.49,383.13l-39.49-22.78,9.63-19.35,39.45,22.77-9.59,19.36Z"/><g id="Group_252-3"><path id="Path_1325-3" class="cls-13" d="M234.23,341l-8.37-4.83c-.94-.55-.91-1.45,.07-2,1.1-.55,2.4-.55,3.5,0l8.36,4.83c1,.55,.92,1.45-.07,2-1.1,.56-2.39,.56-3.49,0Z"/></g><g id="Group_253-3"><path id="Path_1326-3" class="cls-13" d="M240.7,344.82c-1-.57-1-1.53,.07-2.12,1.15-.6,2.53-.6,3.68,0,1,.57,1,1.52-.08,2.12-1.15,.59-2.52,.59-3.67,0Z"/></g><g id="Group_254-3"><path id="Path_1327-3" class="cls-13" d="M273,363.35l-8.37-4.83c-1-.54-.92-1.45,.07-2,1.1-.56,2.39-.56,3.49,0l8.37,4.83c.94,.54,.91,1.45-.07,2-1.1,.56-2.39,.56-3.49,0Z"/></g><g id="Group_255-3"><path id="Path_1328-3" class="cls-13" d="M279.49,367.2c-1-.58-1-1.53,.07-2.12,1.15-.58,2.52-.58,3.67,0,1,.58,1,1.53-.07,2.13-1.16,.58-2.52,.58-3.67-.01Z"/></g><path id="Path_1329-3" class="cls-17" d="M166.41,312.66l-39.55,22.84c-3.94,2.27-4.06,5.88-.27,8.07l164.41,94.94c3.78,2.19,10,2.12,14-.15l39.55-22.84-178.14-102.86Z"/><path id="Path_1330-3" class="cls-6" d="M294.42,423.54l-142.66-82.37c-1.79-1-1.56-2.82,.5-4l11-6.37c2.14-1.19,4.71-1.3,6.94-.29l142.67,82.37c1.78,1,1.56,2.82-.5,4l-11,6.37c-2.14,1.2-4.72,1.31-6.95,.29Z"/><path id="Path_1331-3" class="cls-13" d="M313.2,355.29l-99.15-57.29,3.56-2.06,99.16,57.25-3.57,2.1Z"/><path id="Path_1332-3" class="cls-11" d="M333.75,399.5l3.5-5.42c6,1.18,12.88,.22,17.5-2.45,6.63-3.83,6.84-9.94,.46-13.63-4.23-2.44-10.5-3.3-16.39-2.26l-2.57-5.45c9.37-1.66,19.36-.28,26.08,3.6,10.16,5.87,9.84,15.6-.72,21.7-7.37,4.25-18.3,5.78-27.86,3.91Z"/><path id="Path_1333-3" class="cls-20" d="M324,396c-10.16-5.86-9.83-15.6,.72-21.7,3.58-1.97,7.47-3.33,11.5-4l2.57,5.45c-2.53,.43-4.98,1.29-7.22,2.54-6.63,3.83-6.83,9.94-.45,13.63,1.9,1.06,3.96,1.8,6.1,2.19l-3.5,5.41c-3.41-.63-6.7-1.82-9.72-3.52Z"/><g id="Group_256-3"><ellipse id="Ellipse_111-3" class="cls-8" cx="375.1" cy="376.51" rx="2.72" ry="1.57" transform="translate(-11.12 11.42) rotate(-1.72)"/><ellipse id="Ellipse_112-3" class="cls-8" cx="380.61" cy="379.7" rx="2.72" ry="1.57" transform="translate(-11.21 11.58) rotate(-1.72)"/><ellipse id="Ellipse_113-3" class="cls-8" cx="387.42" cy="381.65" rx="2.72" ry="1.57" transform="translate(-12.5 13.12) rotate(-1.91)"/></g><path id="Rectangle_30-9" class="cls-18" d="M481.63,33.93l63.43,36.62c.8,.46,.7,1.28-.23,1.81l-23.34,13.47c-.97,.54-2.14,.59-3.15,.13l-63.43-36.62c-.8-.47-.7-1.28,.23-1.82l23.35-13.46c.97-.53,2.13-.58,3.14-.13Z"/><path id="Path_1041" class="cls-4" d="M466.1,68.15l-10.94,6.31c-.93,.54-1,1.36-.23,1.82l63.44,36.62c1.01,.46,2.17,.41,3.14-.13l11-6.31-66.41-38.31Z"/><path id="Rectangle_30-10" class="cls-10" d="M481.63,17.13l63.43,36.62c.8,.47,.7,1.28-.23,1.82l-23.34,13.43c-.97,.54-2.14,.59-3.15,.13l-63.43-36.59c-.8-.47-.7-1.28,.23-1.82l23.35-13.43c.96-.54,2.13-.6,3.14-.16Z"/><path id="Rectangle_30-11" class="cls-21" d="M481.63,.29l63.43,36.62c.8,.47,.7,1.28-.23,1.82l-23.34,13.5c-.97,.54-2.14,.59-3.15,.13l-63.43-36.62c-.8-.47-.7-1.28,.23-1.82L478.49,.46c.96-.55,2.13-.61,3.14-.17Z"/><path id="Path_1294" class="cls-22" d="M254.09,181c-30.6-17.7-81.35-17.1-113.15,1.3s-32.77,47.7-2.17,65.32,81.35,17.1,113.14-1.26,32.78-47.7,2.18-65.36Zm-23.53,53c-19.56,11.3-50.78,11.64-69.6,.78s-18.22-28.9,1.34-40.19c19.56-11.29,50.78-11.64,69.6-.77s18.22,28.88-1.34,40.18Z"/><g id="Group_232" class="cls-23"><path id="Path_1291" class="cls-11" d="M138.77,236.46c-30.6-17.67-29.62-47,2.18-65.33l21.35,12.33c-19.56,11.29-20.16,29.32-1.34,40.19s50,10.52,69.6-.77,20.16-29.32,1.34-40.19l22.19-12.81c30.59,17.66,29.62,47-2.18,65.32s-82.55,18.92-113.14,1.26Z"/><path id="Path_1292" class="cls-15" d="M162.3,183.46l-21.36-12.33c31.8-18.35,82.56-18.92,113.15-1.25l-22.19,12.81c-18.82-10.87-50.04-10.52-69.6,.77Z"/></g><path id="Path_1354" class="cls-9" d="M162.3,173.46l-21.3-12.33c31.79-18.35,82.55-18.92,113.14-1.25l-22.24,12.81c-18.82-10.87-50.04-10.52-69.6,.77Z"/><path id="Path_1355" class="cls-20" d="M162.3,163.46l-21.3-12.33c31.79-18.35,82.55-18.92,113.14-1.25l-22.24,12.81c-18.82-10.87-50.04-10.52-69.6,.77Z"/><path id="Path_1356" class="cls-14" d="M162.3,153.46l-21.3-12.33c31.79-18.35,82.55-18.92,113.14-1.25l-22.24,12.81c-18.82-10.87-50.04-10.52-69.6,.77Z"/></g></svg>