<?xml version="1.0" encoding="utf-8"?>
<!-- Generator: Adobe Illustrator 26.5.0, SVG Export Plug-In . SVG Version: 6.00 Build 0)  -->
<svg version="1.1" id="Layer_1" xmlns="http://www.w3.org/2000/svg" xmlns:xlink="http://www.w3.org/1999/xlink" x="0px" y="0px"
	 viewBox="0 0 855.4 614.9" style="enable-background:new 0 0 855.4 614.9;" xml:space="preserve">
<style type="text/css">
	.st0{fill:url(#Intersection_1_00000003783529901293924120000004958667427759842233_);}
	.st1{fill:#54AFD1;}
	.st2{opacity:0.1;fill:#535E7B;enable-background:new    ;}
	.st3{opacity:0.8;fill:#7BC5E0;enable-background:new    ;}
	.st4{opacity:0.8;fill:#9FD6EA;enable-background:new    ;}
	.st5{opacity:0.8;fill:#AEE2F5;enable-background:new    ;}
	.st6{opacity:0.8;fill:#CDE9F4;enable-background:new    ;}
	.st7{fill:#3090B5;}
	.st8{fill:none;}
	.st9{opacity:0.1;}
	.st10{fill:#0A759F;}
	.st11{fill:#EDEEF3;}
	.st12{fill:#CDE9F4;}
	.st13{fill:#AEE2F5;}
	.st14{fill:#9FD6EA;}
	.st15{fill:#F2F0FC;}
	.st16{fill:#FFFFFF;}
	.st17{opacity:0.1;fill:#7253DB;enable-background:new    ;}
	.st18{opacity:0.8;fill:#54AFD1;enable-background:new    ;}
	.st19{opacity:8.000000e-02;fill:#535E7B;enable-background:new    ;}
	.st20{opacity:0.8;}
	.st21{fill:#7BC5E0;}
	.st22{opacity:0.9;fill:#3090B5;enable-background:new    ;}
</style>
<g id="Intersection_1_00000005973000139758258160000011617861218432630418_">
	
		<image style="overflow:visible;" width="928" height="667" xlink:href="ED1EF96E96D92C3F.png"  transform="matrix(1 0 0 1 -36 4.92)">
	</image>
</g>
<linearGradient id="Intersection_1_00000008108430506685501870000004299668223561032580_" gradientUnits="userSpaceOnUse" x1="-938.8051" y1="977.386" x2="-938.515" y2="978.236" gradientTransform="matrix(855.43 0 0 -594.5 803351.9375 581644.125)">
	<stop  offset="0" style="stop-color:#FFFFFF"/>
	<stop  offset="0.1159" style="stop-color:#FFFFFF"/>
	<stop  offset="0.79" style="stop-color:#EAF3FC"/>
	<stop  offset="1" style="stop-color:#CDE9F4"/>
</linearGradient>
<path id="Intersection_1" style="fill:url(#Intersection_1_00000008108430506685501870000004299668223561032580_);" d="M331,613.7
	L80.5,469C30.5,394.8,2.6,308,0,218.5L340.1,21.8c3.4-1.8,7.5-1.8,11-0.1l502.1,289.9c3,1.7,2.9,4.6-0.2,6.3L342,613.5
	c-1.7,0.9-3.7,1.4-5.7,1.4C334.5,615,332.6,614.5,331,613.7z"/>
<path id="Intersection_1-2" class="st1" d="M323.2,31.5l16.9-9.7c3.1-1.6,6.6-1.8,9.9-0.7l504.2,291.2c1.4,1,1.7,2.8,0.7,4.2
	c-0.2,0.3-0.4,0.5-0.7,0.7l-18.1,10.4L323.2,31.5z"/>
<path id="Rectangle_30" class="st2" d="M569.7,316.7l113.7,65.6c1.4,0.8,1.3,2.3-0.4,3.3l-41.8,24.1c-1.7,1-3.8,1.1-5.6,0.2
	l-113.6-65.6c-1.5-0.8-1.3-2.3,0.4-3.3l41.8-24.1C565.8,316,567.9,315.9,569.7,316.7z"/>
<path id="Rectangle_30-2" class="st2" d="M506.2,353.6l113.6,65.6c1.5,0.8,1.3,2.3-0.4,3.2l-41.8,24.1c-1.7,1-3.8,1-5.6,0.2
	l-113.6-65.6c-1.5-0.8-1.3-2.3,0.4-3.3l41.8-24.1C502.3,352.9,504.4,352.8,506.2,353.6z"/>
<path id="Rectangle_30-3" class="st2" d="M442.7,390.5l113.6,65.6c1.5,0.8,1.3,2.3-0.4,3.3l-41.8,24.1c-1.7,1-3.8,1.1-5.6,0.2
	l-113.7-65.6c-1.4-0.8-1.3-2.3,0.4-3.2l41.8-24.1C438.8,389.8,440.9,389.7,442.7,390.5z"/>
<path id="Rectangle_30-4" class="st2" d="M379.2,427.4L492.8,493c1.5,0.8,1.3,2.3-0.4,3.3l-41.8,24.1c-1.7,1-3.8,1.1-5.6,0.2
	L331.4,455c-1.4-0.8-1.3-2.3,0.4-3.3l41.8-24.1C375.3,426.6,377.4,426.6,379.2,427.4z"/>
<path id="Rectangle_30-5" class="st3" d="M571.2,306l113.6,65.6c1.5,0.8,1.3,2.3-0.4,3.3L642.7,399c-1.7,1-3.8,1.1-5.6,0.2
	l-113.6-65.7c-1.4-0.8-1.3-2.3,0.4-3.2l41.8-24.1C567.3,305.2,569.4,305.2,571.2,306z"/>
<path id="Rectangle_30-6" class="st4" d="M507.7,342.9l113.6,65.6c1.4,0.8,1.3,2.3-0.4,3.3l-41.8,24.1c-1.7,1-3.8,1.1-5.6,0.2
	l-113.6-65.6c-1.5-0.8-1.3-2.3,0.4-3.3l41.8-24.1C503.8,342.1,505.9,342,507.7,342.9z"/>
<path id="Rectangle_30-7" class="st5" d="M444.2,379.7l113.6,65.6c1.5,0.8,1.3,2.3-0.4,3.3l-41.8,24.1c-1.7,1-3.9,1.1-5.7,0.3
	l-113.6-65.7c-1.5-0.8-1.3-2.3,0.4-3.2l41.8-24.1C440.3,379,442.4,378.9,444.2,379.7z"/>
<path id="Rectangle_30-8" class="st6" d="M380.7,416.6l113.6,65.6c1.5,0.8,1.3,2.3-0.4,3.3l-41.8,24.1c-1.7,1-3.8,1.1-5.6,0.2
	l-113.6-65.6c-1.5-0.8-1.3-2.3,0.4-3.3l41.8-24.1C376.8,415.9,378.9,415.8,380.7,416.6z"/>
<g id="Group_242">
	<path id="Path_1304" class="st7" d="M693.2,312.3l22.5-13l21.7,12.5l-22.5,13L693.2,312.3z"/>
	<path id="Path_1305" class="st7" d="M654.5,290l22.5-13l21.7,12.5l-22.5,13L654.5,290z"/>
	<path id="Path_1306" class="st7" d="M615.8,267.6l22.5-13l21.7,12.5l-22.5,13L615.8,267.6z"/>
	<g id="Group_241">
		<line id="Line_64" class="st8" x1="715.3" y1="312" x2="638" y2="267.4"/>
		<path id="Path_1307" class="st7" d="M637.2,267.9l1.6-0.9l77.3,44.6l-1.6,0.9L637.2,267.9z"/>
	</g>
</g>
<g id="Group_244" class="st9">
	<path id="Path_1308" class="st7" d="M693.2,339.4l22.5-13l21.7,12.5l-22.5,13L693.2,339.4z"/>
	<path id="Path_1309" class="st7" d="M654.5,317.1l22.5-13l21.7,12.5l-22.5,13L654.5,317.1z"/>
	<path id="Path_1310" class="st7" d="M615.8,294.7l22.5-13l21.7,12.6l-22.5,13L615.8,294.7z"/>
	<g id="Group_243">
		<line id="Line_65" class="st8" x1="715.3" y1="339.1" x2="638" y2="294.5"/>
		<path id="Path_1311" class="st7" d="M637.2,295l1.6-0.9l77.3,44.6l-1.6,0.9L637.2,295z"/>
	</g>
</g>
<path id="Path_1312" class="st10" d="M377.6,146.2L273.4,86l3.3-1.9l104.2,60.1L377.6,146.2z"/>
<path id="Path_1313" class="st10" d="M391.4,138.2l-77-44.5l3.3-1.9l77,44.4L391.4,138.2z"/>
<path id="Path_1314" class="st10" d="M363.8,154.2L259.6,94l3.3-1.9l104.2,60.2L363.8,154.2z"/>
<path id="Path_1315" class="st10" d="M350,162.1L245.8,102l3.3-1.9l104.2,60.2L350,162.1z"/>
<path id="Path_1316" class="st10" d="M336.2,170.1L232,110l3.3-1.9l104.2,60.2L336.2,170.1z"/>
<path id="Path_1317" class="st10" d="M272.6,149.4l-54.5-31.4l3.3-1.9l54.5,31.4L272.6,149.4z"/>
<g id="Group_246">
	<path id="Path_1318" class="st10" d="M302.9,88.1l2.5-3.5l-8.6-5l-6.1,1.5l-3.2-1.9l26.5-6l2.6,1.5L306.2,90L302.9,88.1z
		 M300.5,78.6l6.5,3.8l4.6-6.4L300.5,78.6z"/>
</g>
<ellipse id="Ellipse_56" transform="matrix(0.9994 -3.332961e-02 3.332961e-02 0.9994 -0.8443 11.5711)" class="st11" cx="346.7" cy="31.1" rx="3.7" ry="2.1"/>
<ellipse id="Ellipse_57" transform="matrix(0.9994 -3.332961e-02 3.332961e-02 0.9994 -0.9835 11.8208)" class="st11" cx="354.1" cy="35.4" rx="3.7" ry="2.1"/>
<ellipse id="Ellipse_58" transform="matrix(0.9994 -3.332961e-02 3.332961e-02 0.9994 -1.1275 12.0804)" class="st11" cx="361.8" cy="39.9" rx="3.7" ry="2.1"/>
<path id="Path_1319" class="st12" d="M504.6,295.5l-164.4-94.9c-3.8-2.2-3.3-6,1.1-8.5l88.9-51.3c4.4-2.5,11-2.8,14.8-0.6
	l164.4,94.9c3.8,2.2,3.3,6-1.1,8.5l-88.9,51.3C515,297.5,508.4,297.7,504.6,295.5z"/>
<path id="Path_1320" class="st12" d="M401.5,157.3l-20.6,11.9l-0.4,0.8l44.9,26l9.6-19.4L401.5,157.3z"/>
<g id="Group_250">
	<path id="Path_1321" class="st7" d="M409.2,175.8l-8.4-4.8c-1-0.6-0.9-1.4,0.1-2c1.1-0.5,2.4-0.5,3.5,0l8.4,4.8
		c0.9,0.6,0.9,1.4-0.1,2C411.6,176.3,410.3,176.3,409.2,175.8z"/>
</g>
<g id="Group_251">
	<path id="Path_1322" class="st7" d="M415.7,179.6c-1-0.6-1-1.5,0.1-2.1c1.2-0.6,2.5-0.6,3.7,0c1,0.6,1,1.5-0.1,2.1
		C418.2,180.2,416.9,180.2,415.7,179.6z"/>
</g>
<path id="Path_1323" class="st13" d="M462.6,217.4l-39.4-22.8l9.6-19.3l39.4,22.8L462.6,217.4z"/>
<path id="Path_1324" class="st14" d="M502,240.1l-39.5-22.8l9.6-19.4l39.5,22.8L502,240.1z"/>
<g id="Group_252">
	<path id="Path_1325" class="st7" d="M447.8,198l-8.4-4.8c-0.9-0.6-0.9-1.4,0.1-2c1.1-0.5,2.4-0.5,3.5,0l8.4,4.8
		c1,0.6,0.9,1.4-0.1,2C450.2,198.6,448.9,198.6,447.8,198z"/>
</g>
<g id="Group_253">
	<path id="Path_1326" class="st7" d="M454.3,201.9c-1-0.6-1-1.5,0.1-2.1c1.2-0.6,2.5-0.6,3.7,0c1,0.6,1,1.5-0.1,2.1
		C456.8,202.4,455.4,202.4,454.3,201.9z"/>
</g>
<g id="Group_254">
	<path id="Path_1327" class="st7" d="M486.6,220.4l-8.4-4.8c-1-0.5-0.9-1.4,0.1-2c1.1-0.6,2.4-0.6,3.5,0l8.4,4.8
		c0.9,0.5,0.9,1.4-0.1,2C489,220.9,487.7,220.9,486.6,220.4z"/>
</g>
<g id="Group_255">
	<path id="Path_1328" class="st7" d="M493,224.2c-1-0.6-1-1.5,0.1-2.1c1.2-0.6,2.5-0.6,3.7,0c1,0.6,1,1.5-0.1,2.1
		C495.5,224.8,494.2,224.8,493,224.2z"/>
</g>
<path id="Path_1329" class="st13" d="M380,169.7l-39.5,22.8c-3.9,2.3-4.1,5.9-0.3,8.1l164.4,94.9c3.8,2.2,10,2.1,14-0.1l39.5-22.8
	L380,169.7z"/>
<path id="Path_1330" class="st15" d="M508,280.6l-142.7-82.4c-1.8-1-1.6-2.8,0.5-4l11-6.4c2.1-1.2,4.7-1.3,6.9-0.3l142.7,82.3
	c1.8,1,1.6,2.8-0.5,4l-11,6.4C512.8,281.5,510.2,281.6,508,280.6z"/>
<path id="Path_1331" class="st7" d="M526.8,212.3L427.6,155l3.6-2.1l99.2,57.3L526.8,212.3z"/>
<path id="Path_1332" class="st14" d="M547.3,256.5l3.5-5.4c6,1.2,12.9,0.2,17.5-2.4c6.6-3.8,6.8-9.9,0.5-13.6
	c-4.2-2.4-10.5-3.3-16.4-2.3l-2.6-5.5c9.4-1.7,19.4-0.3,26.1,3.6c10.2,5.9,9.8,15.6-0.7,21.7C567.8,256.9,556.9,258.4,547.3,256.5z"
	/>
<path id="Path_1333" class="st1" d="M537.6,253c-10.2-5.9-9.8-15.6,0.7-21.7c3.6-2,7.5-3.3,11.5-4l2.6,5.4c-2.5,0.4-5,1.3-7.2,2.5
	c-6.6,3.8-6.8,9.9-0.5,13.6c1.9,1.1,4,1.8,6.1,2.2l-3.5,5.4C543.9,255.9,540.6,254.7,537.6,253z"/>
<g id="Group_256">
	
		<ellipse id="Ellipse_111" transform="matrix(0.9995 -3.001516e-02 3.001516e-02 0.9995 -6.7706 17.7663)" class="st16" cx="588.4" cy="234.4" rx="2.7" ry="1.6"/>
	
		<ellipse id="Ellipse_112" transform="matrix(0.9995 -3.001516e-02 3.001516e-02 0.9995 -6.8639 17.9326)" class="st16" cx="593.9" cy="237.6" rx="2.7" ry="1.6"/>
	
		<ellipse id="Ellipse_113" transform="matrix(0.9995 -3.001516e-02 3.001516e-02 0.9995 -6.9618 18.1063)" class="st16" cx="599.6" cy="240.9" rx="2.7" ry="1.6"/>
</g>
<path id="Path_1319-2" class="st12" d="M380.3,365.6l-164.4-94.9c-3.8-2.2-3.3-6,1.1-8.5l88.9-51.3c4.4-2.5,11-2.8,14.8-0.6
	L485,305.1c3.8,2.2,3.3,6-1.1,8.5L395,365C390.7,367.5,384.1,367.8,380.3,365.6z"/>
<path id="Path_1320-2" class="st12" d="M277.2,227.3l-20.7,12l-0.4,0.8l44.9,25.9l9.6-19.4L277.2,227.3z"/>
<g id="Group_250-2">
	<path id="Path_1321-2" class="st7" d="M284.9,245.8l-8.4-4.8c-1-0.6-0.9-1.4,0.1-2c1.1-0.5,2.4-0.5,3.5,0l8.4,4.8
		c1,0.6,0.9,1.4-0.1,2C287.3,246.4,286,246.4,284.9,245.8z"/>
</g>
<g id="Group_251-2">
	<path id="Path_1322-2" class="st7" d="M291.4,249.7c-1-0.6-1-1.5,0.1-2.1c1.2-0.6,2.5-0.6,3.7,0c1,0.6,1,1.5-0.1,2.1
		C293.9,250.3,292.5,250.3,291.4,249.7z"/>
</g>
<path id="Path_1323-2" class="st13" d="M338.3,287.5l-39.4-22.8l9.6-19.4l39.4,22.8L338.3,287.5z"/>
<path id="Path_1324-2" class="st14" d="M377.7,310.2l-39.4-22.8l9.6-19.4l39.4,22.8L377.7,310.2z"/>
<g id="Group_252-2">
	<path id="Path_1325-2" class="st7" d="M323.5,268.1l-8.4-4.8c-1-0.5-0.9-1.5,0.1-2c1.1-0.5,2.4-0.5,3.5,0l8.4,4.8
		c0.9,0.5,0.9,1.5-0.1,2C325.9,268.7,324.6,268.6,323.5,268.1z"/>
</g>
<g id="Group_253-2">
	<path id="Path_1326-2" class="st7" d="M329.9,271.9c-1-0.6-1-1.5,0.1-2.1c1.2-0.6,2.5-0.6,3.7,0c1,0.6,1,1.5-0.1,2.1
		C332.5,272.5,331.1,272.5,329.9,271.9z"/>
</g>
<g id="Group_254-2">
	<path id="Path_1327-2" class="st7" d="M362.2,290.5l-8.4-4.8c-1-0.5-0.9-1.5,0.1-2c1.1-0.6,2.4-0.6,3.5,0l8.4,4.8
		c1,0.5,0.9,1.5-0.1,2C364.6,291,363.3,291,362.2,290.5z"/>
</g>
<g id="Group_255-2">
	<path id="Path_1328-2" class="st7" d="M368.7,294.3c-1-0.6-1-1.5,0.1-2.1c1.2-0.6,2.5-0.6,3.7,0c1,0.6,1,1.5-0.1,2.1
		C371.2,294.9,369.9,294.9,368.7,294.3z"/>
</g>
<path id="Path_1329-2" class="st13" d="M255.7,239.8l-39.6,22.8c-3.9,2.3-4,5.9-0.3,8.1l164.4,94.9c3.8,2.2,10,2.1,14-0.1l39.5-22.8
	L255.7,239.8z"/>
<path id="Path_1330-2" class="st15" d="M383.7,350.6L241,268.3c-1.8-1-1.6-2.8,0.5-4l11-6.4c2.1-1.2,4.7-1.3,7-0.3L402.1,340
	c1.8,1,1.5,2.8-0.5,4l-11,6.4C388.5,351.6,385.9,351.7,383.7,350.6z"/>
<path id="Path_1331-2" class="st7" d="M402.5,282.4l-99.1-57.2l3.6-2.1l99.1,57.2L402.5,282.4z"/>
<path id="Path_1332-2" class="st14" d="M423,326.6l3.5-5.4c6,1.2,12.9,0.2,17.5-2.5c6.6-3.8,6.8-9.9,0.5-13.6
	c-4.2-2.4-10.5-3.3-16.4-2.3l-2.6-5.5c9.4-1.7,19.4-0.3,26.1,3.6c10.2,5.9,9.8,15.6-0.7,21.7C443.5,326.9,432.6,328.5,423,326.6z"/>
<path id="Path_1333-2" class="st1" d="M413.3,323.1c-10.2-5.9-9.8-15.6,0.7-21.7c3.6-2,7.5-3.3,11.5-4l2.6,5.5
	c-2.5,0.4-5,1.3-7.2,2.5c-6.6,3.8-6.8,9.9-0.5,13.6c1.9,1.1,4,1.8,6.1,2.2l-3.5,5.4C419.6,326,416.3,324.8,413.3,323.1z"/>
<g id="Group_256-2">
	
		<ellipse id="Ellipse_111-2" transform="matrix(0.9994 -3.332961e-02 3.332961e-02 0.9994 -9.8153 15.6794)" class="st16" cx="465.4" cy="302.3" rx="2.7" ry="1.6"/>
	
		<ellipse id="Ellipse_112-2" transform="matrix(0.9994 -3.332961e-02 3.332961e-02 0.9994 -9.9187 15.8649)" class="st16" cx="470.9" cy="305.4" rx="2.7" ry="1.6"/>
	
		<ellipse id="Ellipse_113-2" transform="matrix(0.9995 -3.001516e-02 3.001516e-02 0.9995 -9.11 14.3975)" class="st16" cx="475" cy="310.6" rx="2.7" ry="1.6"/>
</g>
<path id="Path_1319-3" class="st12" d="M255,438.5L90.6,343.6c-3.8-2.2-3.3-6,1.1-8.5l88.9-51.3c4.4-2.5,11-2.8,14.8-0.6l164.4,95
	c3.8,2.2,3.3,6-1.1,8.5L269.8,438C265.5,440.4,258.8,440.7,255,438.5z"/>
<path id="Path_1320-3" class="st12" d="M152,300.2l-20.6,11.9l-0.4,0.8l44.9,25.9l9.6-19.4L152,300.2z"/>
<g id="Group_250-3">
	<path id="Path_1321-3" class="st7" d="M159.7,318.7l-8.4-4.8c-0.9-0.5-0.9-1.5,0.1-2c1.1-0.5,2.4-0.5,3.5,0l8.4,4.8
		c0.9,0.5,0.9,1.5-0.1,2C162.1,319.3,160.8,319.3,159.7,318.7z"/>
</g>
<g id="Group_251-3">
	<path id="Path_1322-3" class="st7" d="M166.1,322.6c-1-0.6-1-1.5,0.1-2.1c1.2-0.6,2.5-0.6,3.7,0c1,0.6,1,1.5-0.1,2.1
		C168.7,323.2,167.3,323.2,166.1,322.6z"/>
</g>
<path id="Path_1323-3" class="st13" d="M213,360.4l-39.4-22.8l9.6-19.4l39.5,22.8L213,360.4z"/>
<path id="Path_1324-3" class="st14" d="M252.5,383.1L213,360.4l9.6-19.4l39.5,22.8L252.5,383.1z"/>
<g id="Group_252-3">
	<path id="Path_1325-3" class="st7" d="M198.2,341l-8.4-4.8c-0.9-0.5-0.9-1.5,0.1-2c1.1-0.5,2.4-0.5,3.5,0l8.4,4.8
		c1,0.5,0.9,1.5-0.1,2C200.6,341.6,199.3,341.6,198.2,341z"/>
</g>
<g id="Group_253-3">
	<path id="Path_1326-3" class="st7" d="M204.7,344.8c-1-0.6-1-1.5,0.1-2.1c1.2-0.6,2.5-0.6,3.7,0c1,0.6,1,1.5-0.1,2.1
		C207.2,345.4,205.9,345.4,204.7,344.8z"/>
</g>
<g id="Group_254-3">
	<path id="Path_1327-3" class="st7" d="M237,363.4l-8.4-4.8c-1-0.5-0.9-1.5,0.1-2c1.1-0.6,2.4-0.6,3.5,0l8.4,4.8
		c0.9,0.5,0.9,1.5-0.1,2C239.4,363.9,238.1,363.9,237,363.4z"/>
</g>
<g id="Group_255-3">
	<path id="Path_1328-3" class="st7" d="M243.5,367.2c-1-0.6-1-1.5,0.1-2.1c1.2-0.6,2.5-0.6,3.7,0c1,0.6,1,1.5-0.1,2.1
		C246,367.8,244.6,367.8,243.5,367.2z"/>
</g>
<path id="Path_1329-3" class="st13" d="M130.4,312.7l-39.6,22.8c-3.9,2.3-4.1,5.9-0.3,8.1L255,438.5c3.8,2.2,10,2.1,14-0.1
	l39.5-22.8L130.4,312.7z"/>
<path id="Path_1330-3" class="st15" d="M258.4,423.5l-142.7-82.4c-1.8-1-1.6-2.8,0.5-4l11-6.4c2.1-1.2,4.7-1.3,6.9-0.3l142.7,82.4
	c1.8,1,1.6,2.8-0.5,4l-11,6.4C263.2,424.5,260.7,424.6,258.4,423.5z"/>
<path id="Path_1331-3" class="st7" d="M277.2,355.3L178.1,298l3.6-2.1l99.2,57.2L277.2,355.3z"/>
<path id="Path_1332-3" class="st14" d="M297.8,399.5l3.5-5.4c6,1.2,12.9,0.2,17.5-2.5c6.6-3.8,6.8-9.9,0.5-13.6
	c-4.2-2.4-10.5-3.3-16.4-2.3l-2.6-5.5c9.4-1.7,19.4-0.3,26.1,3.6c10.2,5.9,9.8,15.6-0.7,21.7C318.2,399.8,307.3,401.4,297.8,399.5z"
	/>
<path id="Path_1333-3" class="st1" d="M288,396c-10.2-5.9-9.8-15.6,0.7-21.7c3.6-2,7.5-3.3,11.5-4l2.6,5.5c-2.5,0.4-5,1.3-7.2,2.5
	c-6.6,3.8-6.8,9.9-0.5,13.6c1.9,1.1,4,1.8,6.1,2.2l-3.5,5.4C294.3,398.9,291,397.7,288,396z"/>
<g id="Group_256-3">
	
		<ellipse id="Ellipse_111-3" transform="matrix(0.9996 -2.998651e-02 2.998651e-02 0.9996 -11.1376 10.3379)" class="st16" cx="339.1" cy="376.5" rx="2.7" ry="1.6"/>
	
		<ellipse id="Ellipse_112-3" transform="matrix(0.9996 -2.998651e-02 2.998651e-02 0.9996 -11.2309 10.5044)" class="st16" cx="344.6" cy="379.7" rx="2.7" ry="1.6"/>
	
		<ellipse id="Ellipse_113-3" transform="matrix(0.9994 -3.332961e-02 3.332961e-02 0.9994 -12.5248 11.9246)" class="st16" cx="351.4" cy="381.6" rx="2.7" ry="1.6"/>
</g>
<path id="Rectangle_30-9" class="st5" d="M445.6,33.9l63.4,36.6c0.8,0.5,0.7,1.3-0.2,1.8l-23.3,13.5c-1,0.5-2.1,0.6-3.1,0.1
	l-63.4-36.6c-0.8-0.5-0.7-1.3,0.2-1.8l23.4-13.5C443.5,33.5,444.6,33.5,445.6,33.9z"/>
<path id="Path_1041" class="st17" d="M430.1,68.2l-10.9,6.3c-0.9,0.5-1,1.4-0.2,1.8l63.4,36.6c1,0.5,2.2,0.4,3.1-0.1l11-6.3
	L430.1,68.2z"/>
<path id="Rectangle_30-10" class="st3" d="M445.6,17.1l63.4,36.6c0.8,0.5,0.7,1.3-0.2,1.8L485.5,69c-1,0.5-2.1,0.6-3.1,0.1
	l-63.4-36.6c-0.8-0.5-0.7-1.3,0.2-1.8l23.4-13.4C443.5,16.7,444.6,16.7,445.6,17.1z"/>
<path id="Rectangle_30-11" class="st18" d="M445.6,0.3l63.4,36.6c0.8,0.5,0.7,1.3-0.2,1.8l-23.3,13.5c-1,0.5-2.1,0.6-3.1,0.1
	l-63.4-36.6c-0.8-0.5-0.7-1.3,0.2-1.8l23.3-13.5C443.5-0.1,444.6-0.2,445.6,0.3z"/>
<path id="Path_1294" class="st19" d="M218.1,181c-30.6-17.7-81.4-17.1-113.2,1.3s-32.8,47.7-2.2,65.3s81.3,17.1,113.1-1.3
	S248.7,198.7,218.1,181z M194.6,234c-19.6,11.3-50.8,11.6-69.6,0.8s-18.2-28.9,1.3-40.2s50.8-11.6,69.6-0.8S214.1,222.7,194.6,234z"
	/>
<g id="Group_232" class="st20">
	<path id="Path_1291" class="st14" d="M102.8,236.5c-30.6-17.7-29.6-47,2.2-65.3l21.3,12.3c-19.6,11.3-20.2,29.3-1.3,40.2
		s50,10.5,69.6-0.8s20.2-29.3,1.3-40.2l22.2-12.8c30.6,17.7,29.6,47-2.2,65.3S133.4,254.1,102.8,236.5z"/>
	<path id="Path_1292" class="st12" d="M126.3,183.5l-21.4-12.3c31.8-18.4,82.6-18.9,113.1-1.2l-22.2,12.8
		C177.1,171.8,145.9,172.2,126.3,183.5z"/>
</g>
<path id="Path_1354" class="st21" d="M126.3,173.5L105,161.1c31.8-18.4,82.6-18.9,113.1-1.2l-22.2,12.8
	C177.1,161.8,145.9,162.2,126.3,173.5z"/>
<path id="Path_1355" class="st1" d="M126.3,163.5L105,151.1c31.8-18.4,82.6-18.9,113.1-1.2l-22.2,12.8
	C177.1,151.8,145.9,152.2,126.3,163.5z"/>
<path id="Path_1356" class="st22" d="M126.3,153.5L105,141.1c31.8-18.3,82.6-18.9,113.1-1.2l-22.2,12.8
	C177.1,141.8,145.9,142.2,126.3,153.5z"/>
</svg>
